<svg width="85" height="24" viewBox="0 0 85 24" version="1.1" xmlns="http://www.w3.org/2000/svg" xmlns:xlink="http://www.w3.org/1999/xlink">
<g id="Canvas" fill="none">
<path id="PropPlan" d="M 6.33984 5.38672L 6.43359 5.26953C 6.48828 5.19141 6.56641 5.14844 6.66797 5.14062C 6.76953 5.125 6.86719 5.09375 6.96094 5.04688L 8.68359 4.56641C 8.84766 4.52734 9.05078 4.49609 9.29297 4.47266L 9.66797 4.35547C 9.76953 4.30859 9.91406 4.28516 10.1016 4.28516L 10.4883 4.20312C 10.5195 4.20312 10.5469 4.23438 10.5703 4.29688C 10.5938 4.35156 10.6133 4.37891 10.6289 4.37891C 10.9961 4.13672 11.2305 4.01562 11.332 4.01562L 11.3555 4.01562L 11.6367 4.08594C 11.6836 4.08594 11.7344 4.05469 11.7891 3.99219L 11.8359 3.94531C 12.0078 4.02344 12.1016 4.0625 12.1172 4.0625C 12.2344 4.0625 12.3672 4.03906 12.5156 3.99219C 12.6641 3.94531 12.8047 3.92188 12.9375 3.92188L 13.3008 3.94531L 14.1094 3.89844C 14.1562 3.89844 14.207 3.92188 14.2617 3.96875L 14.4961 3.92188C 14.7227 3.92188 14.9453 3.95313 15.1641 4.01562C 15.3906 4.07812 15.6602 4.125 15.9727 4.15625C 16.2852 4.1875 16.5117 4.29297 16.6523 4.47266L 16.8516 4.54297L 16.9922 4.54297C 17.1953 4.54297 17.3164 4.625 17.3555 4.78906C 17.4023 4.88281 17.4961 4.97656 17.6367 5.07031L 17.7891 5.31641C 17.7734 5.36328 17.7656 5.41016 17.7656 5.45703C 17.7656 5.50391 17.8516 5.55859 18.0234 5.62109L 18.0703 5.64453C 18.0781 5.76172 18.1523 5.89844 18.293 6.05469C 18.4336 6.20313 18.5039 6.48438 18.5039 6.89844L 18.5039 7.17969L 18.5508 7.78906C 18.5508 8.20312 18.4258 8.70312 18.1758 9.28906C 17.9336 9.875 17.6758 10.2852 17.4023 10.5195C 17.3398 10.7305 17.2656 10.8359 17.1797 10.8359C 16.9062 11.0859 16.7305 11.2109 16.6523 11.2109C 16.6367 11.2109 16.6133 11.2031 16.582 11.1875C 16.4805 11.375 16.3086 11.5391 16.0664 11.6797C 15.832 11.8203 15.6797 11.9023 15.6094 11.9258C 15.5391 11.9492 15.3594 12.0156 15.0703 12.125L 14.7891 12.0547C 14.6719 12.1641 14.5898 12.2227 14.543 12.2305L 13.9219 12.4883C 13.3984 12.6289 13.0547 12.6992 12.8906 12.6992L 12.5977 12.6055C 12.5508 12.6055 12.4805 12.6641 12.3867 12.7812L 12.1641 12.8281C 12.1172 12.7812 11.9648 12.7461 11.707 12.7227C 11.5977 12.793 11.5078 12.8281 11.4375 12.8281L 10.9219 12.8984C 10.8594 12.8984 10.8203 12.8398 10.8047 12.7227L 10.6992 12.7578L 10.6523 12.9219C 10.6211 12.9375 10.582 12.9453 10.5352 12.9453L 9.91406 12.875L 9.62109 12.9453L 9.14062 12.8516L 8.90625 12.875L 8.70703 12.7812L 8.51953 12.8047L 8.33203 12.7578L 8.10938 12.8047L 8.0625 12.7812C 8.03125 12.8438 7.99219 12.8945 7.94531 12.9336C 7.89844 12.9727 7.83594 13.0547 7.75781 13.1797C 7.57812 13.3281 7.46484 13.5078 7.41797 13.7188C 7.37109 13.9297 7.23438 14.0469 7.00781 14.0703C 6.99219 14.1016 6.96875 14.1406 6.9375 14.1875C 6.95312 14.2031 6.97656 14.2695 7.00781 14.3867L 7.00781 14.4336C 7.00781 14.6211 6.85547 14.8125 6.55078 15.0078C 6.50391 15.2891 6.44531 15.4922 6.375 15.6172C 6.3125 15.7422 6.26953 15.8477 6.24609 15.9336C 6.22266 16.0117 6.15625 16.0781 6.04688 16.1328L 6 16.2031L 6 16.543C 6 16.5586 5.97656 16.6094 5.92969 16.6953C 5.88281 16.7734 5.81641 16.8906 5.73047 17.0469L 5.66016 17.1641L 5.56641 17.5508C 5.41016 17.6602 5.33203 17.8125 5.33203 18.0078L 5.35547 18.6758C 5.35547 18.793 5.27734 18.9141 5.12109 19.0391C 4.97266 19.1641 4.82422 19.2266 4.67578 19.2266C 4.29297 19.2266 4.03125 18.9961 3.89062 18.5352L 3.82031 18.4414C 3.65625 18.3086 3.57422 18.1094 3.57422 17.8438C 3.57422 17.5391 3.73438 17.082 4.05469 16.4727L 4.82812 15.0781C 4.83594 15.0625 4.9375 14.9922 5.13281 14.8672L 5.26172 14.9141C 5.29297 14.8984 5.30859 14.8672 5.30859 14.8203C 5.30859 14.8047 5.26562 14.6914 5.17969 14.4805L 5.17969 14.4336C 5.17969 14.3711 5.20703 14.332 5.26172 14.3164L 5.35547 14.2109L 5.33203 13.9766C 5.47266 13.7656 5.54688 13.6289 5.55469 13.5664L 5.67188 13.2969C 5.75 13.1172 5.8125 13.0234 5.85938 13.0156C 5.85938 12.7031 5.95312 12.4727 6.14062 12.3242L 6.23438 12.125C 6.25781 12.0781 6.30859 12.0508 6.38672 12.043C 6.46484 12.0352 6.50391 12.0234 6.50391 12.0078C 6.50391 11.9766 6.49219 11.9375 6.46875 11.8906C 6.44531 11.8438 6.43359 11.8047 6.43359 11.7734C 6.43359 11.6953 6.47656 11.5938 6.5625 11.4688C 6.65625 11.3438 6.72266 11.2812 6.76172 11.2812L 6.9375 11.3867L 6.9375 11.3164C 6.85938 11.2461 6.82031 11.1875 6.82031 11.1406C 6.82031 11.0781 6.85547 10.9961 6.92578 10.8945C 6.99609 10.7852 7.03906 10.707 7.05469 10.6602L 7.14844 10.543C 7.16406 10.543 7.20312 10.4336 7.26562 10.2148C 7.32812 9.99609 7.41797 9.89062 7.53516 9.89844L 7.53516 9.78125C 7.53516 9.70312 7.625 9.51562 7.80469 9.21875L 8.42578 8.11719C 8.44141 8.03906 8.50391 7.90234 8.61328 7.70703L 8.58984 7.42578C 8.58984 7.30078 8.66016 7.10547 8.80078 6.83984C 8.94922 6.57422 9.07031 6.44141 9.16406 6.44141C 9.21094 6.44141 9.24219 6.44922 9.25781 6.46484C 9.28125 6.48047 9.30078 6.48828 9.31641 6.48828L 9.50391 6.46484L 9.87891 6.80469C 9.98047 6.89062 10.0391 7.04297 10.0547 7.26172L 10.1016 7.33203C 10.2969 7.69141 10.3945 7.94531 10.3945 8.09375C 10.3945 8.28125 10.375 8.42578 10.3359 8.52734C 10.3047 8.62109 10.1875 8.73438 9.98438 8.86719C 9.78906 9.09375 9.66797 9.29297 9.62109 9.46484C 9.57422 9.62891 9.49219 9.78516 9.375 9.93359C 9.26562 10.082 9.16797 10.3008 9.08203 10.5898C 8.99609 10.8789 8.84766 11.0938 8.63672 11.2344C 8.61328 11.4453 8.58203 11.625 8.54297 11.7734L 8.54297 11.7969C 8.54297 11.8438 8.57422 11.8672 8.63672 11.8672L 9.02344 11.8203C 9.07031 11.8203 9.125 11.832 9.1875 11.8555C 9.25781 11.8789 9.32422 11.8906 9.38672 11.8906C 9.44922 11.8906 9.52734 11.8594 9.62109 11.7969L 9.69141 11.7969C 9.72266 11.7969 9.82031 11.8359 9.98438 11.9141L 10.0312 11.8906C 10.0781 11.8125 10.125 11.7734 10.1719 11.7734L 10.6289 11.8203L 10.8516 11.7969C 10.9609 11.7266 11.1289 11.6875 11.3555 11.6797C 11.5898 11.6719 11.75 11.6484 11.8359 11.6094C 11.9297 11.5703 12.0117 11.5469 12.082 11.5391C 12.1523 11.5312 12.2422 11.5 12.3516 11.4453C 12.4688 11.3906 12.5664 11.3633 12.6445 11.3633C 12.8242 11.3633 13.0742 11.2812 13.3945 11.1172C 13.5039 11.1484 13.5664 11.1641 13.582 11.1641C 13.7305 11.1641 13.8516 11.1016 13.9453 10.9766C 14.0391 10.8516 14.1445 10.7812 14.2617 10.7656L 14.9766 10.4492C 15.0391 10.4258 15.1758 10.2969 15.3867 10.0625L 15.5977 9.92188L 15.7383 9.72266C 15.7383 9.70703 15.8125 9.66016 15.9609 9.58203C 15.9297 9.56641 15.9062 9.54297 15.8906 9.51172L 16.1484 9.21875C 16.1328 9.14062 16.125 9.09375 16.125 9.07812L 16.125 9.03125C 16.2031 8.91406 16.2812 8.82812 16.3594 8.77344C 16.4453 8.71875 16.4883 8.68359 16.4883 8.66797L 16.3711 8.52734C 16.4805 8.41797 16.5352 8.34766 16.5352 8.31641L 16.4883 7.97656L 16.5352 7.37891C 16.5352 7.07422 16.5156 6.87891 16.4766 6.79297C 16.4375 6.69922 16.4102 6.60547 16.3945 6.51172C 16.2461 6.22266 16.0391 5.98438 15.7734 5.79688C 15.75 5.78125 15.7383 5.75391 15.7383 5.71484L 15.7148 5.59766L 15.7148 5.55078L 15.3398 5.59766C 15.3242 5.59766 15.2969 5.55859 15.2578 5.48047C 15.2266 5.40234 15.1719 5.36328 15.0938 5.36328L 14.9297 5.43359L 14.9062 5.43359C 14.8516 5.43359 14.7148 5.35938 14.4961 5.21094C 14.4492 5.19531 14.3516 5.1875 14.2031 5.1875L 14.0391 5.11719C 13.9922 5.08594 13.9531 5.07031 13.9219 5.07031L 13.8516 5.07031L 13.582 5.11719L 12.9844 5.07031L 12.6211 5C 12.4883 5.09375 12.4023 5.14062 12.3633 5.14062C 12.332 5.14062 12.2578 5.11719 12.1406 5.07031L 12.1172 5.07031L 11.7656 5.11719C 11.6562 5.13281 11.5664 5.14844 11.4961 5.16406L 11.4258 5.16406C 11.168 5.16406 10.9688 5.14062 10.8281 5.09375L 10.7578 5.09375C 10.6719 5.09375 10.6016 5.125 10.5469 5.1875C 10.4922 5.24219 10.4414 5.26953 10.3945 5.26953C 10.3633 5.26953 10.3242 5.21875 10.2773 5.11719C 10.1758 5.19531 10.1016 5.24609 10.0547 5.26953L 9.84375 5.1875C 9.8125 5.25 9.57422 5.31641 9.12891 5.38672L 8.56641 5.50391L 8.47266 5.48047C 8.29297 5.54297 8.14453 5.58594 8.02734 5.60938C 7.91016 5.63281 7.80469 5.66797 7.71094 5.71484C 7.625 5.75391 7.53125 5.78125 7.42969 5.79688C 7.32812 5.8125 7.17969 5.85156 6.98438 5.91406L 6.79688 5.86719C 6.64844 5.95312 6.43359 6.05469 6.15234 6.17188C 5.87109 6.28906 5.69531 6.38281 5.625 6.45312C 5.55469 6.52344 5.48828 6.55859 5.42578 6.55859C 5.41016 6.55859 5.36328 6.55078 5.28516 6.53516L 5.26172 6.53516C 5.19141 6.53516 5.07422 6.61719 4.91016 6.78125C 4.75391 6.9375 4.61719 7.05078 4.5 7.12109C 4.38281 7.19141 4.27734 7.30469 4.18359 7.46094C 4.09766 7.60938 3.89453 7.71875 3.57422 7.78906C 3.55859 7.80469 3.54297 7.82812 3.52734 7.85938L 3.52734 8.04688C 3.40234 8.11719 3.28906 8.25391 3.1875 8.45703L 3.11719 8.57422L 3.09375 8.79688C 3.09375 9.03125 3.0625 9.15625 3 9.17188C 2.9375 9.1875 2.87109 9.22266 2.80078 9.27734C 2.73828 9.32422 2.67578 9.34766 2.61328 9.34766C 2.48047 9.34766 2.35547 9.23047 2.23828 8.99609C 2.12109 8.76172 2.0625 8.62109 2.0625 8.57422C 2.0625 8.11328 2.21484 7.77344 2.51953 7.55469L 3.38672 6.92188C 3.67578 6.71094 3.92188 6.60547 4.125 6.60547C 4.1875 6.57422 4.25391 6.5 4.32422 6.38281C 4.39453 6.26562 4.55469 6.17969 4.80469 6.125L 4.99219 6.19531C 5.00781 6.19531 5.03125 6.16406 5.0625 6.10156C 5.09375 6.03906 5.14062 5.98828 5.20312 5.94922C 5.27344 5.91016 5.33203 5.85937 5.37891 5.79688L 5.68359 5.59766C 5.69922 5.59766 5.71484 5.58984 5.73047 5.57422L 5.90625 5.62109C 5.92188 5.62109 5.94531 5.61328 5.97656 5.59766C 6.00781 5.58203 6.0625 5.57422 6.14062 5.57422C 6.17188 5.57422 6.19531 5.53516 6.21094 5.45703C 6.24219 5.41797 6.28516 5.39453 6.33984 5.38672ZM 16.9922 13.3789L 17.168 13.332L 17.2383 13.1797C 17.6211 12.9531 17.8945 12.7383 18.0586 12.5352C 18.0742 12.5039 18.1094 12.4727 18.1641 12.4414C 18.2188 12.4102 18.2773 12.3555 18.3398 12.2773C 18.6289 11.9883 18.9727 11.8438 19.3711 11.8438C 19.8398 11.8438 20.0898 12.1289 20.1211 12.6992L 20.1914 12.875C 20.2539 12.9844 20.3398 13.207 20.4492 13.543C 20.5664 13.8789 20.625 14.0859 20.625 14.1641C 20.625 14.375 20.5586 14.5859 20.4258 14.7969C 20.3164 14.8516 20.0547 15.1445 19.6406 15.6758L 19.5234 15.7578C 19.4609 15.8984 19.3789 16.0391 19.2773 16.1797C 19.1211 16.2344 19.043 16.293 19.043 16.3555L 19.043 16.5664C 19.043 16.582 19.0234 16.6133 18.9844 16.6602C 18.9531 16.707 18.9062 16.7969 18.8438 16.9297L 18.75 17.0703C 18.7188 17.1016 18.6875 17.168 18.6562 17.2695C 18.625 17.3633 18.5781 17.4492 18.5156 17.5273C 18.4609 17.6055 18.4336 17.668 18.4336 17.7148C 18.4336 17.832 18.5859 17.8906 18.8906 17.8906C 18.9062 17.8906 18.9648 17.8672 19.0664 17.8203L 19.2305 17.8672C 19.2461 17.8672 19.2852 17.8438 19.3477 17.7969C 19.4102 17.7422 19.5039 17.6992 19.6289 17.668C 19.7617 17.6367 19.875 17.5898 19.9688 17.5273C 20.0703 17.4648 20.1875 17.4102 20.3203 17.3633C 20.4609 17.3164 20.5938 17.2422 20.7188 17.1406C 20.8438 17.0312 20.9648 16.9531 21.082 16.9062C 21.207 16.8594 21.3203 16.7891 21.4219 16.6953C 21.5312 16.5938 21.6523 16.5 21.7852 16.4141C 21.918 16.3281 22.1289 16.1406 22.418 15.8516C 22.6055 15.7031 22.7344 15.6211 22.8047 15.6055C 22.8203 15.6055 22.8867 15.5039 23.0039 15.3008C 23.1289 15.0898 23.2695 14.9844 23.4258 14.9844C 23.5898 14.9844 23.6719 15.0625 23.6719 15.2188C 23.6719 15.3047 23.6328 15.3867 23.5547 15.4648L 23.5547 15.5352L 23.5781 15.7227C 23.5938 15.7461 23.6016 15.7812 23.6016 15.8281C 23.6016 15.8594 23.5703 15.9062 23.5078 15.9688C 23.4531 16.0312 23.4141 16.1133 23.3906 16.2148C 23.3672 16.3086 23.293 16.3711 23.168 16.4023C 23.1211 16.5742 23.0586 16.6719 22.9805 16.6953C 22.9102 16.7188 22.8086 16.7969 22.6758 16.9297C 22.543 17.0625 22.3555 17.2188 22.1133 17.3984C 21.8711 17.5781 21.7031 17.7188 21.6094 17.8203C 21.5234 17.9141 21.4648 17.9609 21.4336 17.9609C 21.418 17.9609 21.3867 17.9453 21.3398 17.9141C 21.293 17.8828 21.2617 17.8672 21.2461 17.8672C 21.1992 17.8672 21.168 17.9219 21.1523 18.0312L 21.1055 18.1484C 21.0039 18.2109 20.9453 18.2422 20.9297 18.2422L 20.8594 18.2188L 20.8125 18.2188C 20.7188 18.2188 20.6719 18.2539 20.6719 18.3242L 20.7422 18.4414L 20.7422 18.4648C 20.7422 18.5742 20.6797 18.6289 20.5547 18.6289C 20.4688 18.6289 20.2188 18.7734 19.8047 19.0625L 19.4648 19.1328L 19.1836 19.2852C 19.0898 19.2305 19.0312 19.2031 19.0078 19.2031L 18.8203 19.2617L 18.4805 19.2852C 18.4727 19.2852 18.3281 19.207 18.0469 19.0508C 17.7734 18.8945 17.6094 18.7383 17.5547 18.582C 17.5 18.4258 17.4297 18.2695 17.3438 18.1133C 17.2578 17.9492 17.2148 17.8359 17.2148 17.7734C 17.2148 17.3984 17.2461 17.1328 17.3086 16.9766C 17.3711 16.8125 17.4102 16.6914 17.4258 16.6133C 17.4414 16.5352 17.4844 16.4531 17.5547 16.3672C 17.6328 16.2734 17.6953 16.125 17.7422 15.9219C 17.9688 15.4688 18.125 15.1914 18.2109 15.0898C 18.2969 14.9883 18.3633 14.8633 18.4102 14.7148L 18.5625 14.5039C 18.5781 14.4883 18.6016 14.4297 18.6328 14.3281C 18.6641 14.2188 18.7031 14.1562 18.75 14.1406C 18.8125 14.0312 18.8438 13.9609 18.8438 13.9297C 18.8438 13.7031 18.7422 13.5898 18.5391 13.5898C 18.5 13.5898 18.457 13.6328 18.4102 13.7188C 18.3633 13.7969 18.2539 13.875 18.082 13.9531C 17.918 14.0312 17.8164 14.0898 17.7773 14.1289C 17.7383 14.168 17.6523 14.2188 17.5195 14.2812C 17.3945 14.3359 17.2852 14.4258 17.1914 14.5508L 16.9922 14.6445C 16.9297 14.793 16.875 14.875 16.8281 14.8906C 16.7812 14.9062 16.6367 14.9453 16.3945 15.0078C 16.3789 15.0156 16.3398 15.0625 16.2773 15.1484C 16.2148 15.2344 16.125 15.2773 16.0078 15.2773C 15.9141 15.3711 15.8203 15.4805 15.7266 15.6055C 15.6953 15.6055 15.6133 15.6367 15.4805 15.6992L 15.2461 15.7578C 15.1836 15.8047 15.1133 15.8789 15.0352 15.9805C 14.9648 16.082 14.8281 16.1328 14.625 16.1328C 14.5078 16.1328 14.4492 16.0391 14.4492 15.8516C 14.4492 15.4688 14.582 15.1641 14.8477 14.9375C 15.1211 14.7109 15.3203 14.5898 15.4453 14.5742C 15.5703 14.5586 15.6484 14.5117 15.6797 14.4336C 15.7109 14.3555 15.7852 14.293 15.9023 14.2461C 16.0273 14.1914 16.168 14.0781 16.3242 13.9062C 16.4883 13.7266 16.6641 13.6055 16.8516 13.543L 16.9922 13.3789ZM 29.5078 17.8438L 28.957 18.3242C 28.9258 18.293 28.8945 18.2773 28.8633 18.2773C 28.7852 18.2773 28.6875 18.3477 28.5703 18.4883C 28.4609 18.6289 28.3828 18.6992 28.3359 18.6992L 28.2188 18.6758C 28.0234 18.8242 27.8828 18.9102 27.7969 18.9336C 27.7109 18.957 27.6055 19 27.4805 19.0625C 27.3633 19.125 27.2539 19.1602 27.1523 19.168C 27.0586 19.1758 26.9805 19.2109 26.918 19.2734C 26.8555 19.3281 26.7031 19.3555 26.4609 19.3555L 26.2734 19.332C 26.1719 19.3789 26.1055 19.4023 26.0742 19.4023C 26.0117 19.4023 25.9453 19.3711 25.875 19.3086C 25.8047 19.2383 25.7266 19.1992 25.6406 19.1914C 25.5625 19.1836 25.4805 19.1289 25.3945 19.0273C 25.3086 18.9258 25.2266 18.8555 25.1484 18.8164C 25.0781 18.7773 25.0195 18.7227 24.9727 18.6523L 24.8086 18.5117C 24.6758 18.418 24.5469 18.2461 24.4219 17.9961C 24.2969 17.7461 24.2344 17.5508 24.2344 17.4102L 24.2344 17.3633L 24.2578 17.1406L 24.2344 16.8828C 24.2656 16.8516 24.3047 16.7852 24.3516 16.6836L 24.3516 16.3086L 24.6328 15.3711C 24.6484 15.332 24.6172 15.2812 24.5391 15.2188C 24.4609 15.3359 24.3828 15.4062 24.3047 15.4297C 24.2266 15.4531 24.1719 15.5078 24.1406 15.5938C 24.1172 15.6797 24.0742 15.7227 24.0117 15.7227L 23.8711 15.6758C 23.8555 15.6914 23.8203 15.7734 23.7656 15.9219C 23.7109 16.0625 23.6172 16.1328 23.4844 16.1328C 23.3438 16.1328 23.2734 16.0781 23.2734 15.9688L 23.2969 15.7578L 23.2266 15.4648C 23.2266 15.4023 23.2891 15.2812 23.4141 15.1016C 23.5391 14.9141 23.6523 14.8086 23.7539 14.7852C 23.8633 14.7539 23.9531 14.6797 24.0234 14.5625C 24.1016 14.4375 24.2656 14.2891 24.5156 14.1172C 24.6562 14.0859 24.7773 13.9844 24.8789 13.8125C 24.9883 13.7266 25.1289 13.6562 25.3008 13.6016C 25.4805 13.5469 25.6133 13.4688 25.6992 13.3672C 25.793 13.2578 26.0586 13.0938 26.4961 12.875C 26.9414 12.6484 27.2656 12.5352 27.4688 12.5352C 27.5312 12.5352 27.6172 12.5195 27.7266 12.4883C 27.8359 12.4492 27.9375 12.418 28.0312 12.3945C 28.125 12.3633 28.2227 12.3203 28.3242 12.2656C 28.4258 12.2031 28.5078 12.1719 28.5703 12.1719L 28.9102 12.2891C 29.1602 12.3594 29.3125 12.4102 29.3672 12.4414C 29.3828 12.457 29.4609 12.4922 29.6016 12.5469C 29.75 12.5938 29.8984 12.6602 30.0469 12.7461C 30.2031 12.832 30.2812 12.9922 30.2812 13.2266C 30.1484 13.4219 30.082 13.5273 30.082 13.543C 30.082 13.5742 30.1719 13.6211 30.3516 13.6836C 30.4141 13.8008 30.5078 13.9531 30.6328 14.1406L 30.7617 14.5508L 30.7852 15.5117L 30.7617 15.6055C 30.6758 15.6836 30.6328 15.7344 30.6328 15.7578L 30.668 15.9922L 30.5742 16.3203C 30.5508 16.4219 30.5117 16.4883 30.457 16.5195C 30.4023 16.5508 30.3672 16.5898 30.3516 16.6367L 30.2812 16.7305C 30.2656 16.7539 30.2305 16.8242 30.1758 16.9414C 30.1289 17.0508 30.0742 17.1367 30.0117 17.1992C 29.9492 17.2617 29.9102 17.3359 29.8945 17.4219C 29.8789 17.5078 29.8398 17.5703 29.7773 17.6094C 29.7148 17.6484 29.668 17.6914 29.6367 17.7383C 29.6133 17.7773 29.5703 17.8125 29.5078 17.8438ZM 25.8633 18.1484L 25.9102 18.418L 25.9336 18.4414L 26.1211 18.4414L 26.1797 18.4648C 26.3359 18.4961 26.4531 18.5117 26.5312 18.5117C 26.7734 18.5117 26.9648 18.4531 27.1055 18.3359C 27.2539 18.2109 27.3711 18.1484 27.457 18.1484C 27.543 18.1484 27.6133 18.0898 27.668 17.9727C 27.7305 17.8555 27.7695 17.7969 27.7852 17.7969L 27.9492 17.7969L 27.9961 17.7734C 27.9961 17.5938 28.0742 17.4648 28.2305 17.3867C 28.3945 17.3086 28.5078 17.207 28.5703 17.082C 28.6406 16.9492 28.7188 16.8516 28.8047 16.7891C 28.8906 16.7188 28.9492 16.6289 28.9805 16.5195L 29.0742 16.3789C 29.1055 16.3477 29.1211 16.2891 29.1211 16.2031L 29.3438 15.7812C 29.3906 15.5859 29.4141 15.4336 29.4141 15.3242C 29.4141 15.1602 29.3281 15.0312 29.1562 14.9375C 28.9922 14.8438 28.9102 14.6602 28.9102 14.3867C 28.9102 14.207 29 14.043 29.1797 13.8945C 29.3672 13.7383 29.4609 13.6445 29.4609 13.6133C 29.4609 13.5664 29.4375 13.543 29.3906 13.543C 29.3672 13.543 29.2773 13.5742 29.1211 13.6367C 29.0664 13.7461 28.7891 13.8906 28.2891 14.0703C 28.125 13.9922 28.0352 13.9531 28.0195 13.9531C 27.9727 13.9531 27.9258 14 27.8789 14.0938C 27.832 14.1875 27.7852 14.2539 27.7383 14.293L 27.5859 14.293C 27.5703 14.293 27.5195 14.3438 27.4336 14.4453C 27.3477 14.5469 27.2383 14.5977 27.1055 14.5977L 26.9648 14.7383C 26.9727 14.8633 26.8945 14.9922 26.7305 15.125L 26.6016 15.2773C 26.5234 15.3711 26.4219 15.4805 26.2969 15.6055L 26.0859 16.1328C 26 16.3359 25.957 16.4883 25.957 16.5898C 25.9336 16.6367 25.8789 16.6875 25.793 16.7422C 25.7148 16.7891 25.6758 16.8516 25.6758 16.9297C 25.6758 16.9453 25.7031 16.9844 25.7578 17.0469C 25.8125 17.1094 25.8398 17.1562 25.8398 17.1875L 25.793 17.3398L 25.7461 17.7734L 25.8633 18.1484ZM 33.3047 18.3945L 33.4336 18.2188C 33.4805 18.1562 33.5039 18.0859 33.5039 18.0078L 33.7852 17.1758C 33.8867 16.8789 33.9453 16.7148 33.9609 16.6836L 34.0078 16.4492L 34.1484 16.1797L 34.1953 15.875C 34.2266 15.6484 34.3398 15.3125 34.5352 14.8672L 34.5586 14.6914L 34.6523 14.4336L 34.6523 14.3867C 34.6523 14.3086 34.6289 14.2695 34.582 14.2695L 34.4883 14.2695C 34.3477 14.2695 34.2695 14.3008 34.2539 14.3633L 34.1719 14.6914C 34.1719 14.8086 34.1016 14.8672 33.9609 14.8672C 33.9453 14.8672 33.9023 14.8555 33.832 14.832C 33.7695 14.8086 33.7305 14.7969 33.7148 14.7969C 33.668 14.8906 33.6055 15.0078 33.5273 15.1484C 33.4492 15.1797 33.3203 15.2617 33.1406 15.3945L 33.0234 15.418C 32.9375 15.543 32.8086 15.6719 32.6367 15.8047L 32.5898 15.875C 32.4805 16.0469 32.3281 16.1328 32.1328 16.1328C 31.875 16.1328 31.7461 15.957 31.7461 15.6055C 31.7461 15.3867 31.8516 15.2227 32.0625 15.1133C 32.2734 14.9961 32.4102 14.8945 32.4727 14.8086C 32.5352 14.7148 32.7031 14.5898 32.9766 14.4336L 33.0938 14.2695C 33.1562 14.1836 33.2109 14.1406 33.2578 14.1406L 33.457 14.0703C 33.4883 14.0391 33.5586 14.0234 33.668 14.0234L 33.6445 13.8594C 33.6445 13.8125 33.7422 13.7617 33.9375 13.707C 33.9844 13.6602 34.0898 13.5742 34.2539 13.4492C 34.4258 13.3242 34.7188 12.9883 35.1328 12.4414C 35.1641 12.3633 35.2227 12.3047 35.3086 12.2656C 35.4023 12.2188 35.4805 12.1641 35.543 12.1016L 35.7773 12.1016C 35.8398 12.1016 35.9805 12.207 36.1992 12.418C 36.418 12.6289 36.5273 12.8984 36.5273 13.2266L 36.1875 14.7383L 36.2109 14.8438L 36.1875 14.9375C 36.1875 14.9688 36.2031 14.9844 36.2344 14.9844C 36.2656 14.9844 36.332 14.9219 36.4336 14.7969C 36.4805 14.6484 36.5742 14.5352 36.7148 14.457C 36.8633 14.3789 36.9727 14.2969 37.043 14.2109C 37.1133 14.1172 37.207 14.0352 37.3242 13.9648C 37.4492 13.8945 37.6094 13.7812 37.8047 13.625C 38.0078 13.4609 38.1914 13.3711 38.3555 13.3555L 38.4727 13.2852L 38.5195 13.1094C 38.6602 13 38.8125 12.8984 38.9766 12.8047L 39.2578 12.582C 39.5938 12.4727 39.8438 12.418 40.0078 12.418C 40.0859 12.418 40.1562 12.3867 40.2188 12.3242L 40.4883 12.4414C 40.5039 12.4414 40.5352 12.418 40.582 12.3711C 40.582 12.3555 40.5977 12.3477 40.6289 12.3477C 40.9492 12.3477 41.2188 12.4727 41.4375 12.7227C 41.6641 12.9727 41.7773 13.2461 41.7773 13.543C 41.7773 13.5586 41.7656 13.5938 41.7422 13.6484C 41.7188 13.7031 41.707 13.75 41.707 13.7891L 41.7773 13.9766L 41.7773 14L 41.5195 14.668C 41.4961 14.7461 41.4492 14.9648 41.3789 15.3242C 41.2305 15.5586 41.0547 15.7812 40.8516 15.9922C 40.6562 16.2031 40.5273 16.3633 40.4648 16.4727C 40.4961 16.5039 40.5234 16.5195 40.5469 16.5195C 40.6172 16.5195 40.7188 16.4492 40.8516 16.3086L 41.4023 15.9688L 41.4961 16.0156C 41.6055 15.9375 41.7188 15.8477 41.8359 15.7461C 41.9531 15.6445 42.0547 15.5898 42.1406 15.582C 42.1875 15.5195 42.2695 15.4414 42.3867 15.3477L 42.5039 15.2188C 42.5508 15.2188 42.6055 15.1914 42.668 15.1367C 42.7305 15.082 42.8008 15.0469 42.8789 15.0312C 42.9648 15.0156 43.0508 14.957 43.1367 14.8555C 43.2227 14.7461 43.293 14.6836 43.3477 14.668C 43.4102 14.6523 43.4492 14.6211 43.4648 14.5742C 43.7305 14.3086 43.9375 14.1641 44.0859 14.1406L 44.2266 14.0938C 44.2422 14.0781 44.2578 14.0703 44.2734 14.0703C 44.3594 14.0703 44.4258 14.1523 44.4727 14.3164L 44.3203 14.5508L 44.3203 14.668L 44.3555 14.7969C 44.3555 14.875 44.3086 14.9766 44.2148 15.1016C 44.1211 15.2188 44.0156 15.2773 43.8984 15.2773C 43.7656 15.3398 43.6836 15.4102 43.6523 15.4883C 43.6289 15.5586 43.5156 15.6641 43.3125 15.8047C 43.1094 15.9453 42.9844 16.0703 42.9375 16.1797C 42.8906 16.2812 42.8242 16.332 42.7383 16.332L 42.5273 16.2617C 42.3477 16.4961 42.2266 16.6055 42.1641 16.5898L 42.0938 16.5898L 42.0469 16.6133L 41.9062 16.9062C 41.8203 16.9219 41.7539 16.9453 41.707 16.9766L 41.5898 16.9531C 41.1133 17.4297 40.8086 17.668 40.6758 17.668L 40.4648 17.6445C 40.4492 17.6445 40.4102 17.6914 40.3477 17.7852C 40.293 17.8711 40.2461 17.9336 40.207 17.9727C 40.168 18.0117 40.1172 18.0703 40.0547 18.1484L 39.8086 18.1484C 39.7461 18.1484 39.6289 18.2148 39.457 18.3477C 39.457 18.3633 39.4492 18.3711 39.4336 18.3711L 39.2578 18.3008L 39.2344 18.3008C 39.1562 18.3008 39.0547 18.3633 38.9297 18.4883L 38.5664 18.6289C 38.5664 18.6445 38.5586 18.6523 38.543 18.6523L 38.2969 18.6055C 38.25 18.6055 38.1797 18.6445 38.0859 18.7227L 37.9922 18.7812C 37.9453 18.7812 37.8633 18.8203 37.7461 18.8984L 37.3711 19.0391C 37.332 19.0234 37.2969 19.0156 37.2656 19.0156L 37.0547 19.0391L 36.8672 18.9922C 36.8281 18.9922 36.7695 19.0469 36.6914 19.1562C 36.6914 19.1719 36.6758 19.1797 36.6445 19.1797C 36.6289 19.1797 36.5898 19.1719 36.5273 19.1562L 36.3867 19.1562L 36.1172 19.2266C 36.0547 19.2266 35.9414 19.1641 35.7773 19.0391C 35.6211 18.9141 35.5195 18.8008 35.4727 18.6992L 35.3555 18.5117C 35.2461 18.4648 35.1719 18.418 35.1328 18.3711L 35.0391 18.418C 35.0312 18.4492 34.9961 18.5 34.9336 18.5703C 34.8789 18.6406 34.8516 18.6914 34.8516 18.7227C 34.8516 18.8242 34.8125 18.9609 34.7344 19.1328C 34.6641 19.2969 34.5586 19.5938 34.418 20.0234L 34.2656 20.2109C 34.2344 20.25 34.2188 20.2891 34.2188 20.3281C 34.2188 20.3984 34.1562 20.5195 34.0312 20.6914C 34.0234 20.8867 33.9492 21.082 33.8086 21.2773L 33.7617 21.3945L 33.7617 21.5586C 33.7617 21.6055 33.6836 21.7969 33.5273 22.1328L 33.5039 22.3789C 33.457 22.3867 33.375 22.5391 33.2578 22.8359C 33.1484 23.1406 33.0156 23.3945 32.8594 23.5977L 32.7539 23.9844L 32.6367 24.1953L 32.5664 24.418C 32.5508 24.457 32.5273 24.4883 32.4961 24.5117L 32.4727 24.6289L 32.4023 24.6758C 32.418 24.793 32.3438 24.9883 32.1797 25.2617C 32.1797 25.293 32.1406 25.3477 32.0625 25.4258C 31.9844 25.5039 31.8945 25.6172 31.793 25.7656C 31.6914 25.9219 31.543 26.0625 31.3477 26.1875L 30.8438 26.5039C 30.4688 26.5039 30.2109 26.3047 30.0703 25.9062C 30.0547 25.8594 29.9805 25.7305 29.8477 25.5195C 29.707 25.3086 29.6367 24.9961 29.6367 24.582L 29.7422 24.1016C 29.8125 23.6719 29.8906 23.4023 29.9766 23.293L 30.1172 22.9766C 30.1328 22.9141 30.1602 22.8516 30.1992 22.7891C 30.2383 22.7344 30.2812 22.6445 30.3281 22.5195C 30.3672 22.4023 30.4727 22.2891 30.6445 22.1797C 30.7539 21.9297 30.8672 21.7148 30.9844 21.5352L 31.1484 21.2188C 31.1484 21.125 31.2305 21.0234 31.3945 20.9141C 31.4648 20.7656 31.5625 20.6133 31.6875 20.457C 31.8125 20.3086 31.8945 20.2188 31.9336 20.1875C 31.9727 20.1562 32.0078 20.0586 32.0391 19.8945C 32.0703 19.7227 32.1367 19.6172 32.2383 19.5781C 32.3477 19.5391 32.4102 19.4883 32.4258 19.4258L 32.543 19.2266C 32.6211 19.1641 32.6953 19.0664 32.7656 18.9336C 32.8438 18.8008 32.9297 18.7148 33.0234 18.6758C 33.125 18.4883 33.2188 18.3945 33.3047 18.3945ZM 36.1875 17.0469L 36.5977 16.9766C 36.8164 16.9297 36.9375 16.9062 36.9609 16.9062C 36.9766 16.9062 37.0117 16.918 37.0664 16.9414C 37.1211 16.9648 37.1797 16.9883 37.2422 17.0117C 37.3125 17.0352 37.3867 17.1211 37.4648 17.2695C 37.8477 17.0898 38.0781 16.9609 38.1562 16.8828C 38.2344 16.8047 38.3008 16.7656 38.3555 16.7656C 38.3711 16.7656 38.3945 16.7734 38.4258 16.7891C 38.4414 16.75 38.4609 16.7031 38.4844 16.6484C 38.5078 16.5938 38.5625 16.5312 38.6484 16.4609C 38.7422 16.3828 38.8828 16.2109 39.0703 15.9453L 39.457 15.5117L 39.8672 14.9141C 39.9688 14.7578 40.0547 14.5742 40.125 14.3633L 40.1953 14.2109C 40.2266 14.1172 40.2422 14.0625 40.2422 14.0469C 40.2422 13.9922 40.1875 13.8633 40.0781 13.6602L 39.7852 13.7891L 39.7852 13.7656C 39.6914 13.6953 39.6133 13.6602 39.5508 13.6602C 39.5039 13.6602 39.4609 13.6914 39.4219 13.7539C 39.3828 13.8086 39.3242 13.8438 39.2461 13.8594C 39.1758 13.875 39.1133 13.9102 39.0586 13.9648C 39.0039 14.0195 38.9297 14.0508 38.8359 14.0586C 38.75 14.0664 38.6523 14.125 38.543 14.2344L 38.4023 14.2109L 38.3203 14.2695L 38.1797 14.2344C 38.0156 14.4219 37.8984 14.5391 37.8281 14.5859C 37.7656 14.625 37.6758 14.7266 37.5586 14.8906L 37.3945 14.8906C 37.332 14.8906 37.2734 14.9766 37.2188 15.1484C 37.1406 15.1953 37.0625 15.2695 36.9844 15.3711L 36.6914 15.4883C 36.6289 15.5898 36.5586 15.668 36.4805 15.7227L 36.0234 16.3086C 35.9922 16.3398 35.957 16.3594 35.918 16.3672C 35.8789 16.375 35.8398 16.3867 35.8008 16.4023L 35.8594 16.6367L 35.8242 16.6367C 35.6367 16.7383 35.5195 16.918 35.4727 17.1758L 35.4023 17.457C 35.4023 17.5039 35.418 17.5273 35.4492 17.5273C 35.4805 17.5273 35.5234 17.5 35.5781 17.4453C 35.6328 17.3906 35.7305 17.3125 35.8711 17.2109C 36.0117 17.1094 36.1172 17.0547 36.1875 17.0469ZM 30.5508 24.875C 30.5898 24.8516 30.7891 24.5469 31.1484 23.9609L 31.2656 23.7383C 31.3359 23.6133 31.4023 23.5117 31.4648 23.4336L 31.4883 23.3398C 31.5273 23.3008 31.5664 23.2422 31.6055 23.1641L 32.25 21.4648C 32.3438 21.2148 32.4023 21.0352 32.4258 20.9258C 32.457 20.8242 32.5664 20.5 32.7539 19.9531C 32.707 19.9688 32.6602 20.0234 32.6133 20.1172C 32.5664 20.2188 32.5273 20.2695 32.4961 20.2695L 32.3203 20.293C 32.3047 20.293 32.2422 20.4336 32.1328 20.7148L 32.0859 20.7734C 31.9688 20.7891 31.8906 20.8516 31.8516 20.9609L 31.6523 21.3711L 31.6523 21.5352C 31.6523 21.7227 31.5156 21.8984 31.2422 22.0625C 31.1562 22.2891 31.1016 22.4023 31.0781 22.4023L 30.9609 22.4023L 31.0078 22.6133C 31.0078 22.793 30.957 22.9453 30.8555 23.0703C 30.7461 23.2031 30.6914 23.2773 30.6914 23.293L 30.7148 23.5273L 30.6914 23.7383C 30.5977 23.9648 30.5508 24.2383 30.5508 24.5586L 30.5508 24.875ZM 49.207 5.38672L 49.3008 5.26953C 49.3555 5.19141 49.4336 5.14844 49.5352 5.14062C 49.6367 5.125 49.7344 5.09375 49.8281 5.04688L 51.5508 4.56641C 51.7148 4.52734 51.918 4.49609 52.1602 4.47266L 52.5352 4.35547C 52.6367 4.30859 52.7812 4.28516 52.9688 4.28516L 53.3555 4.20312C 53.3867 4.20312 53.4141 4.23438 53.4375 4.29688C 53.4609 4.35156 53.4805 4.37891 53.4961 4.37891C 53.8633 4.13672 54.0977 4.01562 54.1992 4.01562L 54.2227 4.01562L 54.5039 4.08594C 54.5508 4.08594 54.6016 4.05469 54.6562 3.99219L 54.7031 3.94531C 54.875 4.02344 54.9688 4.0625 54.9844 4.0625C 55.1016 4.0625 55.2344 4.03906 55.3828 3.99219C 55.5312 3.94531 55.6719 3.92188 55.8047 3.92188L 56.168 3.94531L 56.9766 3.89844C 57.0234 3.89844 57.0742 3.92188 57.1289 3.96875L 57.3633 3.92188C 57.5898 3.92188 57.8125 3.95313 58.0312 4.01562C 58.2578 4.07812 58.5273 4.125 58.8398 4.15625C 59.1523 4.1875 59.3789 4.29297 59.5195 4.47266L 59.7188 4.54297L 59.8594 4.54297C 60.0625 4.54297 60.1836 4.625 60.2227 4.78906C 60.2695 4.88281 60.3633 4.97656 60.5039 5.07031L 60.6562 5.31641C 60.6406 5.36328 60.6328 5.41016 60.6328 5.45703C 60.6328 5.50391 60.7188 5.55859 60.8906 5.62109L 60.9375 5.64453C 60.9453 5.76172 61.0195 5.89844 61.1602 6.05469C 61.3008 6.20313 61.3711 6.48438 61.3711 6.89844L 61.3711 7.17969L 61.418 7.78906C 61.418 8.20312 61.293 8.70312 61.043 9.28906C 60.8008 9.875 60.543 10.2852 60.2695 10.5195C 60.207 10.7305 60.1328 10.8359 60.0469 10.8359C 59.7734 11.0859 59.5977 11.2109 59.5195 11.2109C 59.5039 11.2109 59.4805 11.2031 59.4492 11.1875C 59.3477 11.375 59.1758 11.5391 58.9336 11.6797C 58.6992 11.8203 58.5469 11.9023 58.4766 11.9258C 58.4062 11.9492 58.2266 12.0156 57.9375 12.125L 57.6562 12.0547C 57.5391 12.1641 57.457 12.2227 57.4102 12.2305L 56.7891 12.4883C 56.2656 12.6289 55.9219 12.6992 55.7578 12.6992L 55.4648 12.6055C 55.418 12.6055 55.3477 12.6641 55.2539 12.7812L 55.0312 12.8281C 54.9844 12.7812 54.832 12.7461 54.5742 12.7227C 54.4648 12.793 54.375 12.8281 54.3047 12.8281L 53.7891 12.8984C 53.7266 12.8984 53.6875 12.8398 53.6719 12.7227L 53.5664 12.7578L 53.5195 12.9219C 53.4883 12.9375 53.4492 12.9453 53.4023 12.9453L 52.7812 12.875L 52.4883 12.9453L 52.0078 12.8516L 51.7734 12.875L 51.5742 12.7812L 51.3867 12.8047L 51.1992 12.7578L 50.9766 12.8047L 50.9297 12.7812C 50.8984 12.8438 50.8594 12.8945 50.8125 12.9336C 50.7656 12.9727 50.7031 13.0547 50.625 13.1797C 50.4453 13.3281 50.332 13.5078 50.2852 13.7188C 50.2383 13.9297 50.1016 14.0469 49.875 14.0703C 49.8594 14.1016 49.8359 14.1406 49.8047 14.1875C 49.8203 14.2031 49.8438 14.2695 49.875 14.3867L 49.875 14.4336C 49.875 14.6211 49.7227 14.8125 49.418 15.0078C 49.3711 15.2891 49.3125 15.4922 49.2422 15.6172C 49.1797 15.7422 49.1367 15.8477 49.1133 15.9336C 49.0898 16.0117 49.0234 16.0781 48.9141 16.1328L 48.8672 16.2031L 48.8672 16.543C 48.8672 16.5586 48.8438 16.6094 48.7969 16.6953C 48.75 16.7734 48.6836 16.8906 48.5977 17.0469L 48.5273 17.1641L 48.4336 17.5508C 48.2773 17.6602 48.1992 17.8125 48.1992 18.0078L 48.2227 18.6758C 48.2227 18.793 48.1445 18.9141 47.9883 19.0391C 47.8398 19.1641 47.6914 19.2266 47.543 19.2266C 47.1602 19.2266 46.8984 18.9961 46.7578 18.5352L 46.6875 18.4414C 46.5234 18.3086 46.4414 18.1094 46.4414 17.8438C 46.4414 17.5391 46.6016 17.082 46.9219 16.4727L 47.6953 15.0781C 47.7031 15.0625 47.8047 14.9922 48 14.8672L 48.1289 14.9141C 48.1602 14.8984 48.1758 14.8672 48.1758 14.8203C 48.1758 14.8047 48.1328 14.6914 48.0469 14.4805L 48.0469 14.4336C 48.0469 14.3711 48.0742 14.332 48.1289 14.3164L 48.2227 14.2109L 48.1992 13.9766C 48.3398 13.7656 48.4141 13.6289 48.4219 13.5664L 48.5391 13.2969C 48.6172 13.1172 48.6797 13.0234 48.7266 13.0156C 48.7266 12.7031 48.8203 12.4727 49.0078 12.3242L 49.1016 12.125C 49.125 12.0781 49.1758 12.0508 49.2539 12.043C 49.332 12.0352 49.3711 12.0234 49.3711 12.0078C 49.3711 11.9766 49.3594 11.9375 49.3359 11.8906C 49.3125 11.8438 49.3008 11.8047 49.3008 11.7734C 49.3008 11.6953 49.3438 11.5938 49.4297 11.4688C 49.5234 11.3438 49.5898 11.2812 49.6289 11.2812L 49.8047 11.3867L 49.8047 11.3164C 49.7266 11.2461 49.6875 11.1875 49.6875 11.1406C 49.6875 11.0781 49.7227 10.9961 49.793 10.8945C 49.8633 10.7852 49.9062 10.707 49.9219 10.6602L 50.0156 10.543C 50.0312 10.543 50.0703 10.4336 50.1328 10.2148C 50.1953 9.99609 50.2852 9.89062 50.4023 9.89844L 50.4023 9.78125C 50.4023 9.70312 50.4922 9.51562 50.6719 9.21875L 51.293 8.11719C 51.3086 8.03906 51.3711 7.90234 51.4805 7.70703L 51.457 7.42578C 51.457 7.30078 51.5273 7.10547 51.668 6.83984C 51.8164 6.57422 51.9375 6.44141 52.0312 6.44141C 52.0781 6.44141 52.1094 6.44922 52.125 6.46484C 52.1484 6.48047 52.168 6.48828 52.1836 6.48828L 52.3711 6.46484L 52.7461 6.80469C 52.8477 6.89062 52.9062 7.04297 52.9219 7.26172L 52.9688 7.33203C 53.1641 7.69141 53.2617 7.94531 53.2617 8.09375C 53.2617 8.28125 53.2422 8.42578 53.2031 8.52734C 53.1719 8.62109 53.0547 8.73438 52.8516 8.86719C 52.6562 9.09375 52.5352 9.29297 52.4883 9.46484C 52.4414 9.62891 52.3594 9.78516 52.2422 9.93359C 52.1328 10.082 52.0352 10.3008 51.9492 10.5898C 51.8633 10.8789 51.7148 11.0938 51.5039 11.2344C 51.4805 11.4453 51.4492 11.625 51.4102 11.7734L 51.4102 11.7969C 51.4102 11.8438 51.4414 11.8672 51.5039 11.8672L 51.8906 11.8203C 51.9375 11.8203 51.9922 11.832 52.0547 11.8555C 52.125 11.8789 52.1914 11.8906 52.2539 11.8906C 52.3164 11.8906 52.3945 11.8594 52.4883 11.7969L 52.5586 11.7969C 52.5898 11.7969 52.6875 11.8359 52.8516 11.9141L 52.8984 11.8906C 52.9453 11.8125 52.9922 11.7734 53.0391 11.7734L 53.4961 11.8203L 53.7188 11.7969C 53.8281 11.7266 53.9961 11.6875 54.2227 11.6797C 54.457 11.6719 54.6172 11.6484 54.7031 11.6094C 54.7969 11.5703 54.8789 11.5469 54.9492 11.5391C 55.0195 11.5312 55.1094 11.5 55.2188 11.4453C 55.3359 11.3906 55.4336 11.3633 55.5117 11.3633C 55.6914 11.3633 55.9414 11.2812 56.2617 11.1172C 56.3711 11.1484 56.4336 11.1641 56.4492 11.1641C 56.5977 11.1641 56.7188 11.1016 56.8125 10.9766C 56.9062 10.8516 57.0117 10.7812 57.1289 10.7656L 57.8438 10.4492C 57.9062 10.4258 58.043 10.2969 58.2539 10.0625L 58.4648 9.92188L 58.6055 9.72266C 58.6055 9.70703 58.6797 9.66016 58.8281 9.58203C 58.7969 9.56641 58.7734 9.54297 58.7578 9.51172L 59.0156 9.21875C 59 9.14062 58.9922 9.09375 58.9922 9.07812L 58.9922 9.03125C 59.0703 8.91406 59.1484 8.82812 59.2266 8.77344C 59.3125 8.71875 59.3555 8.68359 59.3555 8.66797L 59.2383 8.52734C 59.3477 8.41797 59.4023 8.34766 59.4023 8.31641L 59.3555 7.97656L 59.4023 7.37891C 59.4023 7.07422 59.3828 6.87891 59.3438 6.79297C 59.3047 6.69922 59.2773 6.60547 59.2617 6.51172C 59.1133 6.22266 58.9062 5.98438 58.6406 5.79688C 58.6172 5.78125 58.6055 5.75391 58.6055 5.71484L 58.582 5.59766L 58.582 5.55078L 58.207 5.59766C 58.1914 5.59766 58.1641 5.55859 58.125 5.48047C 58.0938 5.40234 58.0391 5.36328 57.9609 5.36328L 57.7969 5.43359L 57.7734 5.43359C 57.7188 5.43359 57.582 5.35938 57.3633 5.21094C 57.3164 5.19531 57.2188 5.1875 57.0703 5.1875L 56.9062 5.11719C 56.8594 5.08594 56.8203 5.07031 56.7891 5.07031L 56.7188 5.07031L 56.4492 5.11719L 55.8516 5.07031L 55.4883 5C 55.3555 5.09375 55.2695 5.14062 55.2305 5.14062C 55.1992 5.14062 55.125 5.11719 55.0078 5.07031L 54.9844 5.07031L 54.6328 5.11719C 54.5234 5.13281 54.4336 5.14844 54.3633 5.16406L 54.293 5.16406C 54.0352 5.16406 53.8359 5.14062 53.6953 5.09375L 53.625 5.09375C 53.5391 5.09375 53.4688 5.125 53.4141 5.1875C 53.3594 5.24219 53.3086 5.26953 53.2617 5.26953C 53.2305 5.26953 53.1914 5.21875 53.1445 5.11719C 53.043 5.19531 52.9688 5.24609 52.9219 5.26953L 52.7109 5.1875C 52.6797 5.25 52.4414 5.31641 51.9961 5.38672L 51.4336 5.50391L 51.3398 5.48047C 51.1602 5.54297 51.0117 5.58594 50.8945 5.60938C 50.7773 5.63281 50.6719 5.66797 50.5781 5.71484C 50.4922 5.75391 50.3984 5.78125 50.2969 5.79688C 50.1953 5.8125 50.0469 5.85156 49.8516 5.91406L 49.6641 5.86719C 49.5156 5.95312 49.3008 6.05469 49.0195 6.17188C 48.7383 6.28906 48.5625 6.38281 48.4922 6.45312C 48.4219 6.52344 48.3555 6.55859 48.293 6.55859C 48.2773 6.55859 48.2305 6.55078 48.1523 6.53516L 48.1289 6.53516C 48.0586 6.53516 47.9414 6.61719 47.7773 6.78125C 47.6211 6.9375 47.4844 7.05078 47.3672 7.12109C 47.25 7.19141 47.1445 7.30469 47.0508 7.46094C 46.9648 7.60938 46.7617 7.71875 46.4414 7.78906C 46.4258 7.80469 46.4102 7.82812 46.3945 7.85938L 46.3945 8.04688C 46.2695 8.11719 46.1562 8.25391 46.0547 8.45703L 45.9844 8.57422L 45.9609 8.79688C 45.9609 9.03125 45.9297 9.15625 45.8672 9.17188C 45.8047 9.1875 45.7383 9.22266 45.668 9.27734C 45.6055 9.32422 45.543 9.34766 45.4805 9.34766C 45.3477 9.34766 45.2227 9.23047 45.1055 8.99609C 44.9883 8.76172 44.9297 8.62109 44.9297 8.57422C 44.9297 8.11328 45.082 7.77344 45.3867 7.55469L 46.2539 6.92188C 46.543 6.71094 46.7891 6.60547 46.9922 6.60547C 47.0547 6.57422 47.1211 6.5 47.1914 6.38281C 47.2617 6.26562 47.4219 6.17969 47.6719 6.125L 47.8594 6.19531C 47.875 6.19531 47.8984 6.16406 47.9297 6.10156C 47.9609 6.03906 48.0078 5.98828 48.0703 5.94922C 48.1406 5.91016 48.1992 5.85937 48.2461 5.79688L 48.5508 5.59766C 48.5664 5.59766 48.582 5.58984 48.5977 5.57422L 48.7734 5.62109C 48.7891 5.62109 48.8125 5.61328 48.8438 5.59766C 48.875 5.58203 48.9297 5.57422 49.0078 5.57422C 49.0391 5.57422 49.0625 5.53516 49.0781 5.45703C 49.1094 5.41797 49.1523 5.39453 49.207 5.38672ZM 58.7812 16.2852L 58.7812 16.2031C 58.7812 16.0938 58.7891 16.0078 58.8047 15.9453C 58.7578 15.8203 58.7344 15.707 58.7344 15.6055C 58.7344 15.5898 58.7734 15.4805 58.8516 15.2773L 58.957 14.9141C 59.0117 14.7734 59.043 14.6992 59.0508 14.6914C 59.0039 14.5664 58.9805 14.4961 58.9805 14.4805C 58.9805 14.3008 59.0312 14.1523 59.1328 14.0352C 59.2344 13.918 59.3203 13.7539 59.3906 13.543L 59.625 12.8281L 60.0117 11.8906C 60.0195 11.8672 60.0547 11.8047 60.1172 11.7031C 60.1875 11.6016 60.2422 11.5156 60.2812 11.4453C 60.3281 11.3672 60.3906 11.2578 60.4688 11.1172L 60.5859 11.0938C 60.6172 11.0625 60.6328 11.0312 60.6328 11C 60.6328 10.9844 60.6172 10.9219 60.5859 10.8125L 60.9961 10.1328L 61.2422 9.62891C 61.3203 9.49609 61.4062 9.41016 61.5 9.37109C 61.6562 9.08203 61.793 8.90625 61.9102 8.84375C 61.957 8.69531 62.043 8.53516 62.168 8.36328L 62.3906 8.33984C 62.4297 8.23047 62.4688 8.14844 62.5078 8.09375L 62.5312 7.85938C 62.5312 7.90625 62.5508 7.89453 62.5898 7.82422C 62.6289 7.74609 62.6875 7.60547 62.7656 7.40234L 63.082 7.03906L 63.1758 6.875C 63.2148 6.82031 63.2773 6.71484 63.3633 6.55859C 63.4805 6.51172 63.5781 6.42578 63.6562 6.30078L 63.9023 6.10156C 63.8867 6.01563 63.9805 5.82422 64.1836 5.52734C 64.3164 5.47266 64.4375 5.40234 64.5469 5.31641L 64.7109 5.26953C 64.7109 4.99609 64.8086 4.80859 65.0039 4.70703L 65.1445 4.61328C 65.2695 4.55078 65.3398 4.51953 65.3555 4.51953L 65.4375 4.49609C 65.5312 4.46484 65.6406 4.44922 65.7656 4.44922C 66.0547 4.44922 66.3164 4.55859 66.5508 4.77734C 66.7852 4.98828 66.9023 5.23047 66.9023 5.50391C 66.9023 5.61328 66.8438 5.72656 66.7266 5.84375L 66.6797 5.9375C 66.5703 6.36719 66.4922 6.58203 66.4453 6.58203C 66.4141 6.58203 66.3711 6.60547 66.3164 6.65234C 66.3008 6.91016 66.2852 7.05469 66.2695 7.08594C 66.1289 7.10938 66.0586 7.28516 66.0586 7.61328C 66.043 7.66016 65.9844 7.74219 65.8828 7.85938C 65.7891 7.96875 65.7148 8.125 65.6602 8.32812C 65.6055 8.52344 65.5469 8.62109 65.4844 8.62109L 65.3555 8.62109L 65.3906 8.79688C 65.3906 8.90625 65.3359 9.01562 65.2266 9.125C 65.125 9.22656 65.0625 9.33594 65.0391 9.45312C 65.0156 9.57031 64.9219 9.71094 64.7578 9.875L 64.6406 10.0625C 64.5938 10.1406 64.5312 10.2227 64.4531 10.3086C 64.375 10.3945 64.3086 10.5273 64.2539 10.707L 63.9492 11.2695C 63.7383 11.6523 63.5781 11.8359 63.4688 11.8203C 63.3984 12.125 63.3516 12.3008 63.3281 12.3477C 63.3047 12.3945 63.25 12.4375 63.1641 12.4766C 63.0781 12.5156 63.0117 12.5859 62.9648 12.6875C 62.918 12.7812 62.8672 12.8516 62.8125 12.8984L 62.6016 13.332C 62.4766 13.3867 62.3867 13.4883 62.332 13.6367C 62.207 13.668 62.1289 13.7734 62.0977 13.9531C 62.0664 13.9844 62.0273 14.0547 61.9805 14.1641L 61.5703 14.5742C 61.3594 14.7227 61.2461 14.8945 61.2305 15.0898C 61.2148 15.2773 61.1133 15.3711 60.9258 15.3711C 60.793 15.3711 60.5977 15.3125 60.3398 15.1953L 60.3164 15.1953C 60.293 15.3047 60.2383 15.4258 60.1523 15.5586L 60.1992 15.875C 60.1992 15.9141 60.1367 16.1602 60.0117 16.6133C 60.0742 16.7305 60.1055 16.8125 60.1055 16.8594L 60.082 17.1172L 60.1406 17.4336C 60.1797 17.6914 60.2734 17.8203 60.4219 17.8203L 60.7031 17.8672C 60.7188 17.8672 60.8164 17.8086 60.9961 17.6914L 61.4297 17.457C 61.4453 17.457 61.4531 17.4648 61.4531 17.4805C 61.5312 17.5117 61.5938 17.5273 61.6406 17.5273C 61.7188 17.5273 61.7578 17.4648 61.7578 17.3398L 61.7578 17.1875C 61.8047 17.1094 61.8594 17.0625 61.9219 17.0469C 61.9922 17.0312 62.0547 16.9961 62.1094 16.9414C 62.1641 16.8867 62.207 16.8594 62.2383 16.8594L 62.3555 16.8594C 62.4727 16.8594 62.5312 16.7227 62.5312 16.4492C 62.5625 16.4336 62.6016 16.4023 62.6484 16.3555L 62.7891 16.3555C 62.8516 16.3555 62.918 16.2812 62.9883 16.1328C 63.0664 15.9766 63.1211 15.8828 63.1523 15.8516C 63.293 15.8359 63.3906 15.8125 63.4453 15.7812C 63.6953 15.3281 63.8867 15.1016 64.0195 15.1016L 64.0898 15.1016C 64.2227 14.9766 64.293 14.8672 64.3008 14.7734C 64.3164 14.6719 64.3555 14.6055 64.418 14.5742C 64.4883 14.543 64.5508 14.5039 64.6055 14.457C 64.6602 14.4102 64.6953 14.3867 64.7109 14.3867C 64.8281 14.3867 64.8867 14.4297 64.8867 14.5156L 64.8516 14.8438L 64.9336 15.1953C 64.9336 15.2266 64.8984 15.2891 64.8281 15.3828C 64.7656 15.4688 64.7344 15.5664 64.7344 15.6758C 64.7344 15.9023 64.6953 16.0234 64.6172 16.0391C 64.5391 16.0547 64.4727 16.1094 64.418 16.2031C 64.3711 16.2891 64.2891 16.3711 64.1719 16.4492C 64.0547 16.5195 63.9648 16.625 63.9023 16.7656L 63.7031 16.8125L 63.5859 16.8828C 63.4922 17.125 63.3906 17.2734 63.2812 17.3281C 63.1797 17.3828 63.0508 17.5469 62.8945 17.8203C 62.8711 17.8203 62.8594 17.8281 62.8594 17.8438L 62.6719 17.8203C 62.6016 17.9453 62.5312 18.0195 62.4609 18.043C 62.3906 18.0664 62.332 18.1133 62.2852 18.1836C 62.2383 18.2461 62.1523 18.3008 62.0273 18.3477C 61.9102 18.3945 61.8359 18.4492 61.8047 18.5117C 61.7734 18.5742 61.7266 18.6094 61.6641 18.6172C 61.6016 18.625 61.543 18.6562 61.4883 18.7109C 61.4336 18.7578 61.3867 18.7812 61.3477 18.7812C 61.332 18.7812 61.2773 18.7734 61.1836 18.7578L 61.1367 18.7578C 61.0039 18.8516 60.8945 18.8984 60.8086 18.8984C 60.707 18.8984 60.6328 18.9141 60.5859 18.9453C 60.5391 18.9141 60.4648 18.8906 60.3633 18.875C 60.2695 18.8594 60.1602 18.8203 60.0352 18.7578C 59.9023 18.7891 59.8203 18.8047 59.7891 18.8047C 59.6562 18.8047 59.4883 18.6758 59.2852 18.418C 59.082 18.1523 58.9805 17.8945 58.9805 17.6445C 58.9805 17.6367 58.9336 17.5781 58.8398 17.4688C 58.7539 17.3516 58.7109 17.2266 58.7109 17.0938L 58.7109 16.9766L 58.7344 16.8359L 58.7344 16.6133L 58.7578 16.543C 58.875 16.5273 58.9336 16.5117 58.9336 16.4961L 58.7812 16.2852ZM 61.1602 13.1797L 61.4062 13.0391C 61.4375 12.9141 61.5391 12.7656 61.7109 12.5938C 61.8828 12.4141 62.0039 12.3242 62.0742 12.3242L 62.168 12.3242C 62.168 12.2695 62.1797 12.2148 62.2031 12.1602C 62.2266 12.1055 62.2383 12.0312 62.2383 11.9375C 62.2383 11.8906 62.3438 11.7617 62.5547 11.5508L 62.6484 11.3398C 62.7188 11.1367 62.8945 10.9688 63.1758 10.8359C 63.2852 10.6094 63.3672 10.4961 63.4219 10.4961L 63.5156 10.4727C 63.5469 10.3555 63.6094 10.25 63.7031 10.1562L 63.75 10.0859L 63.75 9.89844C 63.75 9.88281 63.8008 9.82031 63.9023 9.71094C 64.0117 9.59375 64.0898 9.48828 64.1367 9.39453C 64.1836 9.29297 64.2461 9.21484 64.3242 9.16016C 64.4102 9.10547 64.4688 9.00781 64.5 8.86719L 64.6875 8.84375C 64.6875 8.74219 64.6953 8.67578 64.7109 8.64453L 64.7344 8.52734C 64.7734 8.43359 64.9102 8.1875 65.1445 7.78906L 65.332 7.35547C 65.332 7.30859 65.3633 7.25391 65.4258 7.19141C 65.4961 7.12109 65.5312 7.02344 65.5312 6.89844L 65.625 6.51172C 65.625 6.33203 65.5938 6.24219 65.5312 6.24219C 65.4531 6.29688 65.3789 6.33594 65.3086 6.35938C 65.2461 6.38281 65.1836 6.52344 65.1211 6.78125C 64.8867 6.83594 64.75 6.94922 64.7109 7.12109C 64.6797 7.28516 64.5859 7.42578 64.4297 7.54297L 64.3477 7.68359C 64.332 7.76953 64.2578 7.85938 64.125 7.95312C 63.9922 8.04688 63.8672 8.20703 63.75 8.43359C 63.3594 8.97266 63.1445 9.26172 63.1055 9.30078L 62.9883 9.44141L 62.8125 9.41797C 62.8438 9.54297 62.8594 9.61328 62.8594 9.62891C 62.8594 9.67578 62.8359 9.72266 62.7891 9.76953C 62.7422 9.80859 62.707 9.85938 62.6836 9.92188C 62.6602 9.98438 62.6133 10.0586 62.543 10.1445C 62.4727 10.2227 62.4062 10.3555 62.3438 10.543C 62.2891 10.7227 62.2383 10.8281 62.1914 10.8594L 62.0273 10.8359C 61.9258 10.8984 61.875 10.9609 61.875 11.0234L 61.9102 11.1875C 61.9102 11.2188 61.8867 11.2578 61.8398 11.3047C 61.8008 11.3438 61.7617 11.4258 61.7227 11.5508C 61.6836 11.6758 61.5859 11.8672 61.4297 12.125C 61.2734 12.375 61.1484 12.6445 61.0547 12.9336C 60.9688 13.2148 60.8828 13.3945 60.7969 13.4727C 60.8125 13.4883 60.8359 13.4961 60.8672 13.4961C 60.9688 13.4961 61.0664 13.3906 61.1602 13.1797ZM 72.9141 16.0391L 73.1016 15.875C 73.2188 15.875 73.2891 15.8242 73.3125 15.7227C 73.3359 15.6133 73.418 15.5273 73.5586 15.4648C 73.707 15.4023 73.8438 15.2773 73.9688 15.0898C 74.0938 14.8945 74.2227 14.7969 74.3555 14.7969C 74.4023 14.7969 74.457 14.8359 74.5195 14.9141C 74.582 14.9922 74.6133 15.0547 74.6133 15.1016C 74.6133 15.3594 74.5352 15.625 74.3789 15.8984L 74.332 16.2266L 74.25 16.3789C 74.1328 16.4414 74.0547 16.5078 74.0156 16.5781C 73.9844 16.6484 73.8945 16.7344 73.7461 16.8359L 73.6289 17C 73.457 17.0547 73.3398 17.1445 73.2773 17.2695C 73.2227 17.3945 73.1406 17.4648 73.0312 17.4805C 72.9297 17.4961 72.8164 17.5742 72.6914 17.7148C 72.6133 17.7539 72.5195 17.7891 72.4102 17.8203L 72.3867 17.9375C 72.3086 18.0156 72.1836 18.0781 72.0117 18.125C 71.8477 18.1719 71.7227 18.2188 71.6367 18.2656C 71.5586 18.3047 71.5039 18.3242 71.4727 18.3242C 71.3242 18.3242 71.1875 18.2969 71.0625 18.2422C 70.9375 18.1797 70.8086 18.1406 70.6758 18.125C 70.6289 18.0781 70.6016 18.0273 70.5938 17.9727C 70.5859 17.918 70.5469 17.8477 70.4766 17.7617C 70.4062 17.668 70.3711 17.543 70.3711 17.3867L 70.418 17.1641C 70.418 17.1328 70.3984 17.0938 70.3594 17.0469C 70.3203 17 70.3008 16.9609 70.3008 16.9297C 70.3008 16.8984 70.3086 16.875 70.3242 16.8594C 70.3398 16.8438 70.3477 16.8203 70.3477 16.7891C 70.3477 16.75 70.3398 16.707 70.3242 16.6602C 70.3086 16.6133 70.3008 16.5742 70.3008 16.543L 70.3711 15.9688C 70.3711 15.9219 70.3555 15.8984 70.3242 15.8984C 70.293 15.8984 70.2344 15.9375 70.1484 16.0156C 70.0703 16.0938 69.9766 16.1328 69.8672 16.1328C 69.8047 16.1797 69.7539 16.2773 69.7148 16.4258C 69.6523 16.5039 69.5742 16.5742 69.4805 16.6367L 69.4336 16.707C 69.418 16.7617 69.3594 16.8086 69.2578 16.8477C 69.1562 16.8789 69.0859 16.9219 69.0469 16.9766L 68.9297 17.0938L 68.707 17.0703C 68.6914 17.0859 68.6484 17.1562 68.5781 17.2812C 68.5078 17.3984 68.418 17.4961 68.3086 17.5742L 67.418 18.3008C 67.3242 18.3633 67.1875 18.4414 67.0078 18.5352L 66.9375 18.6055C 66.3125 19.0195 65.8711 19.2266 65.6133 19.2266C 65.4023 19.2266 65.1562 19.168 64.875 19.0508C 64.5938 18.9336 64.4414 18.793 64.418 18.6289L 64.3008 18.1484C 64.2305 18.0391 64.1953 17.8867 64.1953 17.6914C 64.1953 17.5977 64.2031 17.5352 64.2188 17.5039L 64.2188 17.4336L 64.1953 17.0469C 64.1953 16.9531 64.2695 16.9062 64.418 16.9062L 64.3945 16.5898C 64.3945 16.5586 64.4609 16.4375 64.5938 16.2266C 64.7344 16.0078 64.8281 15.8828 64.875 15.8516L 64.9922 15.6992C 64.9844 15.6055 65.0391 15.5078 65.1562 15.4062C 65.2734 15.2969 65.3672 15.1875 65.4375 15.0781C 65.5078 14.9688 65.6406 14.8477 65.8359 14.7148L 66.1875 14.3633C 66.4609 14.0898 66.7578 13.8711 67.0781 13.707C 67.125 13.6914 67.2188 13.6133 67.3594 13.4727C 67.5078 13.332 67.6719 13.2305 67.8516 13.168C 68.0391 13.0977 68.2188 13.0117 68.3906 12.9102C 68.5703 12.8086 68.7109 12.7578 68.8125 12.7578L 68.9062 12.7578C 68.9375 12.7578 69.1445 12.6602 69.5273 12.4648L 69.5977 12.4648C 69.6289 12.4648 69.7031 12.4961 69.8203 12.5586L 69.8438 12.5586L 70.0312 12.4648C 70.0625 12.4492 70.1016 12.4414 70.1484 12.4414C 70.6328 12.4414 70.8984 12.7773 70.9453 13.4492C 70.9609 13.5898 71 13.6602 71.0625 13.6602C 71.1406 13.6602 71.25 13.5195 71.3906 13.2383C 71.5391 12.9492 71.8477 12.8047 72.3164 12.8047C 72.6523 12.8047 72.8203 13.0195 72.8203 13.4492C 72.8203 13.957 72.5938 14.4375 72.1406 14.8906C 72.1094 14.9531 72.0859 15.0234 72.0703 15.1016L 71.9062 15.582L 71.9062 15.6055C 71.9062 15.6523 71.8711 15.7188 71.8008 15.8047C 71.7383 15.8828 71.707 15.9531 71.707 16.0156L 71.7305 16.3086L 71.6836 16.6367C 71.6836 16.7852 71.7109 16.8828 71.7656 16.9297C 72.0156 16.8672 72.1953 16.7656 72.3047 16.625C 72.4219 16.4766 72.5039 16.3945 72.5508 16.3789L 72.668 16.332C 72.7383 16.2148 72.8203 16.1172 72.9141 16.0391ZM 69.0234 16.0391C 69.0547 15.8672 69.1484 15.7383 69.3047 15.6523C 69.4688 15.5586 69.5664 15.4648 69.5977 15.3711C 69.7461 15.2617 69.957 15.0664 70.2305 14.7852C 70.5117 14.5039 70.6523 14.332 70.6523 14.2695C 70.6523 14.2461 70.6367 14.2344 70.6055 14.2344L 70.582 14.2344L 70.4883 14.293L 70.2773 14.2695L 70.0547 14.293L 69.8906 14.2109L 69.7383 14.2344L 69.5039 14.1875C 69.3789 14.1875 69.2695 14.2148 69.1758 14.2695C 69.0898 14.3164 68.918 14.3711 68.6602 14.4336C 68.4102 14.4961 68.1836 14.6055 67.9805 14.7617C 67.7773 14.9102 67.6289 14.9844 67.5352 14.9844C 67.4805 15.1016 67.2969 15.2695 66.9844 15.4883C 66.7969 15.5508 66.6758 15.6875 66.6211 15.8984C 66.418 16.0625 66.3164 16.1562 66.3164 16.1797L 66.2344 16.3789C 66.1719 16.4336 66.0938 16.4805 66 16.5195C 65.9062 16.5508 65.8516 16.6328 65.8359 16.7656C 65.8203 16.8906 65.7656 17.0078 65.6719 17.1172C 65.5859 17.2188 65.543 17.3008 65.543 17.3633C 65.543 17.7461 65.6172 17.9375 65.7656 17.9375C 65.8281 17.9375 65.957 17.8984 66.1523 17.8203C 66.3555 17.7344 66.4727 17.6758 66.5039 17.6445C 66.5352 17.6133 66.5977 17.582 66.6914 17.5508L 66.9141 17.4336C 66.9453 17.4023 66.9805 17.3828 67.0195 17.375C 67.0586 17.3672 67.0977 17.3438 67.1367 17.3047C 67.1758 17.2578 67.2461 17.2109 67.3477 17.1641C 67.4492 17.1094 67.5273 17.0391 67.582 16.9531C 67.7148 16.875 67.9297 16.7539 68.2266 16.5898L 68.4727 16.4023C 68.6445 16.3242 68.75 16.2578 68.7891 16.2031C 68.8281 16.1484 68.9062 16.0938 69.0234 16.0391ZM 84.6211 16.7656L 84.668 16.7656L 84.7852 16.8125C 84.8008 16.8125 84.8164 16.8047 84.832 16.7891C 84.832 16.6562 84.8945 16.543 85.0195 16.4492C 85.0586 16.3008 85.1445 16.1875 85.2773 16.1094C 85.418 16.0312 85.6367 15.9023 85.9336 15.7227L 86.2266 15.4648L 86.3672 15.3945L 86.4609 15.2773C 86.5469 15.1758 86.6289 15.125 86.707 15.125C 86.8242 15.125 86.8828 15.168 86.8828 15.2539L 86.7773 15.4883L 86.8242 15.875C 86.8242 16.0156 86.7734 16.1406 86.6719 16.25C 86.5781 16.3594 86.4297 16.5195 86.2266 16.7305L 85.6289 17.3633L 85.3125 17.5273C 85.2344 17.5742 85.1641 17.6289 85.1016 17.6914L 84.6445 18.0781C 84.6445 18.1875 84.6094 18.2695 84.5391 18.3242L 84.3516 18.3242L 84.2578 18.3711C 84.2031 18.5195 84.043 18.6641 83.7773 18.8047L 83.6133 18.9219C 83.5586 18.9688 83.5078 18.9922 83.4609 18.9922L 83.1328 18.9453L 82.9102 18.9922C 82.8477 18.9922 82.7617 18.9609 82.6523 18.8984C 82.5508 18.8359 82.4453 18.7891 82.3359 18.7578C 82.2266 18.7188 82.0859 18.5742 81.9141 18.3242C 81.75 18.0664 81.6602 17.8984 81.6445 17.8203C 81.6445 17.7891 81.625 17.7383 81.5859 17.668C 81.5547 17.5898 81.5391 17.543 81.5391 17.5273C 81.5391 17.5117 81.5742 17.4336 81.6445 17.293L 81.6445 17.2695C 81.6445 17.2461 81.6211 17.1914 81.5742 17.1055C 81.5352 17.0195 81.5156 16.9141 81.5156 16.7891C 81.5156 16.7188 81.4922 16.6289 81.4453 16.5195C 81.5078 16.457 81.5391 16.4102 81.5391 16.3789C 81.5391 16.3477 81.5273 16.3047 81.5039 16.25C 81.4805 16.1875 81.4688 16.1406 81.4688 16.1094L 81.5391 15.5352L 81.4922 15.2422L 81.5156 14.9609C 81.5156 14.7969 81.4453 14.7148 81.3047 14.7148C 81.2422 14.7148 81.1641 14.7578 81.0703 14.8438L 80.9883 14.8672C 80.7773 14.9688 80.6289 15.0547 80.543 15.125C 80.457 15.1875 80.3672 15.2188 80.2734 15.2188C 80.2266 15.2656 80.1367 15.3086 80.0039 15.3477L 79.9102 15.418C 79.8789 15.4492 79.8164 15.4961 79.7227 15.5586C 79.7227 15.582 79.5742 15.7148 79.2773 15.957C 78.9883 16.1914 78.7266 16.4141 78.4922 16.625C 78.2578 16.8359 78.0859 16.9531 77.9766 16.9766C 77.875 16.9922 77.8242 17.0898 77.8242 17.2695C 77.8242 17.3008 77.7539 17.3633 77.6133 17.457C 77.5977 17.457 77.5156 17.543 77.3672 17.7148C 77.2422 17.6211 77.1719 17.5742 77.1562 17.5742C 77.0547 17.5742 76.9805 17.7031 76.9336 17.9609C 76.8867 18.0625 76.7617 18.125 76.5586 18.1484C 76.543 18.1562 76.5156 18.2148 76.4766 18.3242L 76.4297 18.3711L 76.3125 18.3711C 76.2969 18.3711 76.2422 18.418 76.1484 18.5117C 76.0547 18.5977 75.9727 18.6523 75.9023 18.6758C 75.8008 18.8867 75.7148 18.9922 75.6445 18.9922C 75.6133 18.9922 75.5664 18.9766 75.5039 18.9453C 75.4492 18.9141 75.3789 18.8867 75.293 18.8633C 75.207 18.8398 75.1094 18.7461 75 18.582C 74.8984 18.4102 74.8477 18.2656 74.8477 18.1484C 74.8477 17.2812 75.0156 16.8086 75.3516 16.7305L 75.375 16.6836L 75.375 16.5898C 75.375 16.4883 75.418 16.418 75.5039 16.3789C 75.5977 16.332 75.6914 16.2461 75.7852 16.1211C 75.8789 15.9883 75.9414 15.9141 75.9727 15.8984L 76.125 15.8984C 76.1562 15.8984 76.1719 15.8164 76.1719 15.6523C 76.1719 15.6055 76.1914 15.5625 76.2305 15.5234C 76.2695 15.4844 76.293 15.4297 76.3008 15.3594C 76.3086 15.2812 76.3633 15.1602 76.4648 14.9961C 76.5742 14.8242 76.6289 14.7227 76.6289 14.6914L 76.6055 14.6445C 76.4102 14.8242 76.2695 14.9219 76.1836 14.9375C 76.0977 14.9531 75.9805 15.0664 75.832 15.2773L 75.6445 15.2422C 75.3164 15.4844 75.1133 15.6211 75.0352 15.6523C 74.957 15.6836 74.8711 15.7734 74.7773 15.9219C 74.7773 15.9688 74.75 16 74.6953 16.0156C 74.6406 16.0312 74.5391 16.0938 74.3906 16.2031L 74.3203 16.2031C 74.125 16.2031 74.0273 16.0625 74.0273 15.7812L 74.2734 15.1133C 74.3438 14.9023 74.5078 14.7266 74.7656 14.5859C 75.0312 14.4375 75.2539 14.2969 75.4336 14.1641C 75.6133 14.0312 75.793 13.9609 75.9727 13.9531L 76.0547 13.8359C 76.3203 13.7344 76.5 13.5742 76.5938 13.3555C 76.6875 13.1367 76.8164 13.0273 76.9805 13.0273C 77.4102 13.0273 77.7383 13.1875 77.9648 13.5078C 78.1914 13.8203 78.3047 14.0703 78.3047 14.2578L 78.3281 14.5742C 78.3281 14.6836 78.3047 14.8359 78.2578 15.0312C 78.1641 15.1719 78.1172 15.2773 78.1172 15.3477C 78.1172 15.4102 78.1562 15.4414 78.2344 15.4414C 78.2812 15.4414 78.3438 15.4102 78.4219 15.3477C 78.5 15.2773 78.5859 15.2148 78.6797 15.1602C 78.7812 15.1055 78.8398 15.0586 78.8555 15.0195C 78.9336 14.832 79.0703 14.7031 79.2656 14.6328C 79.4609 14.5625 79.582 14.5039 79.6289 14.457L 79.7461 14.3633L 79.8398 14.1875C 80.0508 14.0938 80.1914 14.0078 80.2617 13.9297C 80.332 13.8516 80.4258 13.8008 80.543 13.7773C 80.6602 13.7539 80.793 13.6836 80.9414 13.5664L 81.1172 13.5195L 81.2812 13.4258C 81.2969 13.4102 81.3438 13.3906 81.4219 13.3672C 81.5 13.3438 81.6133 13.3047 81.7617 13.25C 81.918 13.1875 82.0234 13.1562 82.0781 13.1562C 82.4766 13.1562 82.7891 13.3164 83.0156 13.6367C 83.25 13.957 83.3672 14.2148 83.3672 14.4102L 83.3438 14.6211L 83.3906 14.9375L 83.3906 14.9844L 83.2969 15.6289L 83.3203 15.8516C 83.3203 16.2188 83.2422 16.4727 83.0859 16.6133C 83.0469 16.6289 83.0273 16.668 83.0273 16.7305L 83.0273 16.8359L 83.2617 17.3281C 83.332 17.5 83.3867 17.5859 83.4258 17.5859L 83.8008 17.4805C 83.9102 17.4492 84 17.3672 84.0703 17.2344C 84.1328 17.2031 84.2422 17.1094 84.3984 16.9531C 84.4453 16.8281 84.5195 16.7656 84.6211 16.7656Z" transform="translate(-2 -3)" fill="#F2F2F2"/>
</g>
</svg>
